<svg
  xmlns="http://www.w3.org/2000/svg"
  xmlns:xlink="http://www.w3.org/1999/xlink"
>
  <symbol id="bell">
    <svg
      xmlns="http://www.w3.org/2000/svg"
      fill="none"
      viewBox="0 0 24 24"
      stroke-width="1.5"
      stroke="currentColor"
      class="w-6 h-6"
    >
      <path
        stroke-linecap="round"
        stroke-linejoin="round"
        d="M14.857 17.082a23.848 23.848 0 005.454-1.31A8.967 8.967 0 0118 9.75v-.7V9A6 6 0 006 9v.75a8.967 8.967 0 01-2.312 6.022c1.733.64 3.56 1.085 5.455 1.31m5.714 0a24.255 24.255 0 01-5.714 0m5.714 0a3 3 0 11-5.714 0"
      />
    </svg>
  </symbol>

  <symbol id="bookmark">
    <svg
      xmlns="http://www.w3.org/2000/svg"
      fill="none"
      viewBox="0 0 24 24"
      stroke-width="1.5"
      stroke="currentColor"
      class="w-6 h-6"
    >
      <path
        stroke-linecap="round"
        stroke-linejoin="round"
        d="M17.593 3.322c1.1.128 1.907 1.077 1.907 2.185V21L12 17.25 4.5 21V5.507c0-1.108.806-2.057 1.907-2.185a48.507 48.507 0 0111.186 0z"
      />
    </svg>
  </symbol>

  <symbol id="calculator">
    <svg
      xmlns="http://www.w3.org/2000/svg"
      fill="none"
      viewBox="0 0 24 24"
      stroke-width="1.5"
      stroke="currentColor"
      class="w-6 h-6"
    >
      <path
        stroke-linecap="round"
        stroke-linejoin="round"
        d="M15.75 15.75V18m-7.5-6.75h.008v.008H8.25v-.008zm0 2.25h.008v.008H8.25V13.5zm0 2.25h.008v.008H8.25v-.008zm0 2.25h.008v.008H8.25V18zm2.498-6.75h.007v.008h-.007v-.008zm0 2.25h.007v.008h-.007V13.5zm0 2.25h.007v.008h-.007v-.008zm0 2.25h.007v.008h-.007V18zm2.504-6.75h.008v.008h-.008v-.008zm0 2.25h.008v.008h-.008V13.5zm0 2.25h.008v.008h-.008v-.008zm0 2.25h.008v.008h-.008V18zm2.498-6.75h.008v.008h-.008v-.008zm0 2.25h.008v.008h-.008V13.5zM8.25 6h7.5v2.25h-7.5V6zM12 2.25c-1.892 0-3.758.11-5.593.322C5.307 2.7 4.5 3.65 4.5 4.757V19.5a2.25 2.25 0 002.25 2.25h10.5a2.25 2.25 0 002.25-2.25V4.757c0-1.108-.806-2.057-1.907-2.185A48.507 48.507 0 0012 2.25z"
      />
    </svg>
  </symbol>

  <symbol id="calendar">
    <svg
      xmlns="http://www.w3.org/2000/svg"
      fill="none"
      viewBox="0 0 24 24"
      stroke-width="1.5"
      stroke="currentColor"
      class="w-6 h-6"
    >
      <path
        stroke-linecap="round"
        stroke-linejoin="round"
        d="M6.75 3v2.25M17.25 3v2.25M3 18.75V7.5a2.25 2.25 0 012.25-2.25h13.5A2.25 2.25 0 0121 7.5v11.25m-18 0A2.25 2.25 0 005.25 21h13.5A2.25 2.25 0 0021 18.75m-18 0v-7.5A2.25 2.25 0 015.25 9h13.5A2.25 2.25 0 0121 11.25v7.5"
      />
    </svg>
  </symbol>

  <symbol id="cloud">
    <svg
      xmlns="http://www.w3.org/2000/svg"
      fill="none"
      viewBox="0 0 24 24"
      stroke-width="1.5"
      stroke="currentColor"
      class="w-6 h-6"
    >
      <path
        stroke-linecap="round"
        stroke-linejoin="round"
        d="M2.25 15a4.5 4.5 0 004.5 4.5H18a3.75 3.75 0 001.332-7.257 3 3 0 00-3.758-3.848 5.25 5.25 0 00-10.233 2.33A4.502 4.502 0 002.25 15z"
      />
    </svg>
  </symbol>

  <symbol id="cube">
    <svg
      xmlns="http://www.w3.org/2000/svg"
      fill="none"
      viewBox="0 0 24 24"
      stroke-width="1.5"
      stroke="currentColor"
      class="w-6 h-6"
    >
      <path
        stroke-linecap="round"
        stroke-linejoin="round"
        d="M21 7.5l-9-5.25L3 7.5m18 0l-9 5.25m9-5.25v9l-9 5.25M3 7.5l9 5.25M3 7.5v9l9 5.25m0-9v9"
      />
    </svg>
  </symbol>

  <symbol id="document">
    <svg
      xmlns="http://www.w3.org/2000/svg"
      fill="none"
      viewBox="0 0 24 24"
      stroke-width="1.5"
      stroke="currentColor"
      class="w-6 h-6"
    >
      <path
        stroke-linecap="round"
        stroke-linejoin="round"
        d="M19.5 14.25v-2.625a3.375 3.375 0 00-3.375-3.375h-1.5A1.125 1.125 0 0113.5 7.125v-1.5a3.375 3.375 0 00-3.375-3.375H8.25m2.25 0H5.625c-.621 0-1.125.504-1.125 1.125v17.25c0 .621.504 1.125 1.125 1.125h12.75c.621 0 1.125-.504 1.125-1.125V11.25a9 9 0 00-9-9z"
      />
    </svg>
  </symbol>

  <symbol id="gift">
    <svg
      xmlns="http://www.w3.org/2000/svg"
      fill="none"
      viewBox="0 0 24 24"
      stroke-width="1.5"
      stroke="currentColor"
      class="w-6 h-6"
    >
      <path
        stroke-linecap="round"
        stroke-linejoin="round"
        d="M21 11.25v8.25a1.5 1.5 0 01-1.5 1.5H5.25a1.5 1.5 0 01-1.5-1.5v-8.25M12 4.875A2.625 2.625 0 109.375 7.5H12m0-2.625V7.5m0-2.625A2.625 2.625 0 1114.625 7.5H12m0 0V21m-8.625-9.75h18c.621 0 1.125-.504 1.125-1.125v-1.5c0-.621-.504-1.125-1.125-1.125h-18c-.621 0-1.125.504-1.125 1.125v1.5c0 .621.504 1.125 1.125 1.125z"
      />
    </svg>
  </symbol>

  <symbol id="inbox">
    <svg
      xmlns="http://www.w3.org/2000/svg"
      fill="none"
      viewBox="0 0 24 24"
      stroke-width="1.5"
      stroke="currentColor"
      class="w-6 h-6"
    >
      <path
        stroke-linecap="round"
        stroke-linejoin="round"
        d="M2.25 13.5h3.86a2.25 2.25 0 012.012 1.244l.256.512a2.25 2.25 0 002.013 1.244h3.218a2.25 2.25 0 002.013-1.244l.256-.512a2.25 2.25 0 012.013-1.244h3.859m-19.5.338V18a2.25 2.25 0 002.25 2.25h15A2.25 2.25 0 0021.75 18v-4.162c0-.224-.034-.447-.1-.661L19.24 5.338a2.25 2.25 0 00-2.15-1.588H6.911a2.25 2.25 0 00-2.15 1.588L2.35 13.177a2.25 2.25 0 00-.1.661z"
      />
    </svg>
  </symbol>

  <symbol id="key">
    <svg
      xmlns="http://www.w3.org/2000/svg"
      fill="none"
      viewBox="0 0 24 24"
      stroke-width="1.5"
      stroke="currentColor"
      class="w-6 h-6"
    >
      <path
        stroke-linecap="round"
        stroke-linejoin="round"
        d="M15.75 5.25a3 3 0 013 3m3 0a6 6 0 01-7.029 5.912c-.563-.097-1.159.026-1.563.43L10.5 17.25H8.25v2.25H6v2.25H2.25v-2.818c0-.597.237-1.17.659-1.591l6.499-6.499c.404-.404.527-1 .43-1.563A6 6 0 1121.75 8.25z"
      />
    </svg>
  </symbol>
</svg>
